<?xml version="1.0" standalone="no"?>
<!DOCTYPE svg PUBLIC "-//W3C//DTD SVG 20010904//EN"
 "http://www.w3.org/TR/2001/REC-SVG-20010904/DTD/svg10.dtd">
<svg version="1.0" xmlns="http://www.w3.org/2000/svg"
 width="300.000000pt" height="164.000000pt" viewBox="0 0 300.000000 164.000000"
 preserveAspectRatio="xMidYMid meet">
<metadata>
Created by potrace 1.10, written by Peter Selinger 2001-2011
</metadata>
<g transform="translate(0.000000,164.000000) scale(0.100000,-0.100000)"
fill="#000000" stroke="none">
<path d="M905 1440 c-4 -6 -3 -14 0 -20 9 -15 35 -12 35 4 0 17 -27 29 -35 16z"/>
<path d="M1000 1375 c-12 -14 -11 -18 1 -26 25 -15 41 -10 37 13 -4 27 -21 33
-38 13z"/>
<path d="M913 1339 c5 -39 32 -77 46 -63 3 3 0 9 -8 13 -7 5 -12 11 -12 15 1
3 1 9 0 14 -1 4 -2 18 -2 31 -1 13 -8 26 -16 29 -11 4 -13 -4 -8 -39z m14 -1
c-3 -8 -6 -5 -6 6 -1 11 2 17 5 13 3 -3 4 -12 1 -19z"/>
<path d="M716 1293 c-6 -15 -8 -15 -17 -3 -8 11 -9 7 -6 -18 2 -18 0 -35 -5
-38 -4 -3 -8 -13 -7 -22 0 -13 3 -12 11 6 13 25 28 29 28 7 0 -9 21 -25 48
-37 26 -12 51 -24 57 -27 5 -2 -8 13 -30 35 -22 22 -43 38 -47 36 -5 -2 -8 2
-8 7 0 6 5 11 10 11 6 0 10 5 10 12 0 9 -3 9 -12 0 -7 -7 -21 -12 -32 -12 -19
0 -19 1 2 23 23 25 28 37 13 37 -5 0 -12 -8 -15 -17z"/>
<path d="M810 1303 c0 -5 8 -18 18 -30 12 -17 21 -20 32 -13 12 8 11 11 -7 16
-13 4 -23 13 -23 20 0 8 -4 14 -10 14 -5 0 -10 -3 -10 -7z"/>
<path d="M1043 1283 c-39 -5 -41 -12 -9 -50 22 -26 22 -29 6 -29 -10 0 -17 4
-14 7 2 4 -1 11 -7 14 -7 5 -10 1 -7 -9 1 -10 5 -16 8 -15 9 4 52 -23 46 -28
-3 -4 0 -13 8 -22 8 -9 16 -25 19 -36 4 -18 5 -18 6 3 0 12 5 22 10 22 5 0 7
-10 5 -22 -4 -21 -4 -22 5 -3 8 17 10 18 10 3 1 -10 6 -18 11 -18 20 0 9 18
-31 53 -22 20 -40 38 -40 41 3 30 -1 46 -13 46 -8 0 -18 5 -22 11 -4 8 3 9 26
4 69 -15 184 -80 174 -97 -4 -6 -2 -8 3 -5 27 17 113 -122 128 -205 4 -21 11
-38 15 -38 10 0 -3 -52 -22 -90 -7 -14 -38 -57 -70 -97 -72 -89 -108 -150
-108 -185 0 -40 17 -78 36 -78 16 0 16 1 1 18 -23 25 -21 80 4 121 11 19 45
64 75 101 131 162 133 277 7 447 -33 43 -128 107 -148 99 -9 -3 -14 -2 -10 3
3 5 -1 12 -7 14 -9 4 -8 6 2 6 50 2 189 -103 215 -163 12 -28 13 -29 14 -8 1
30 -39 82 -89 117 -26 18 -37 32 -33 43 3 12 2 13 -4 4 -8 -10 -17 -9 -49 4
-42 18 -98 24 -151 17z m48 -130 c13 -16 12 -17 -3 -4 -10 7 -18 15 -18 17 0
8 8 3 21 -13z m209 -18 c13 -14 21 -25 18 -25 -2 0 -15 11 -28 25 -13 14 -21
25 -18 25 2 0 15 -11 28 -25z"/>
<path d="M970 1261 c0 -11 29 -35 35 -29 10 9 -7 38 -21 38 -8 0 -14 -4 -14
-9z"/>
<path d="M926 1247 c-18 -13 -18 -14 -2 -20 10 -4 22 -5 27 -2 5 3 19 1 31 -6
23 -12 23 -11 -1 15 -28 30 -31 31 -55 13z"/>
<path d="M1260 1250 c0 -5 8 -11 19 -15 10 -3 26 -14 36 -25 24 -26 39 -26 25
0 -6 11 -15 18 -21 15 -5 -4 -9 -3 -9 2 0 4 -11 13 -25 20 -14 6 -25 7 -25 3z"/>
<path d="M850 1235 c-21 -25 4 -42 69 -48 71 -6 94 -17 63 -28 -12 -5 -22 -14
-22 -21 0 -9 3 -9 8 -2 14 20 45 25 68 9 13 -9 24 -12 24 -7 0 14 -36 43 -44
35 -4 -4 -11 -1 -16 7 -5 8 -31 17 -61 20 -34 3 -54 10 -57 20 -5 13 -3 13 13
0 17 -14 18 -14 6 8 -14 26 -33 28 -51 7z"/>
<path d="M1125 1190 c15 -28 135 -120 158 -120 9 0 9 -2 1 -8 -7 -4 -8 -15 -3
-27 7 -18 8 -18 10 5 1 21 3 19 9 -10 7 -33 7 -33 9 -7 0 16 -8 40 -19 54 -11
14 -20 22 -20 18 0 -4 -7 -2 -15 5 -12 10 -13 15 -3 28 11 13 9 14 -16 8 -25
-6 -28 -5 -23 13 5 22 -7 29 -18 10 -5 -6 -12 -4 -22 8 -8 10 -12 12 -8 6 3
-7 2 -13 -3 -13 -12 0 -24 29 -17 40 3 4 -4 10 -15 13 -18 5 -19 3 -5 -23z"/>
<path d="M1375 1160 c22 -44 21 -44 28 -26 3 7 -6 24 -20 37 l-26 24 18 -35z"/>
<path d="M750 1159 c-29 -52 18 -92 84 -72 32 10 110 -4 107 -19 0 -5 1 -7 3
-5 3 1 17 -9 32 -23 15 -14 24 -19 19 -11 -6 10 -4 12 5 6 17 -11 -16 -36 -45
-34 -11 1 -31 0 -45 -1 -23 -1 -23 -2 -5 -10 15 -6 9 -8 -25 -8 -25 0 -35 3
-22 5 12 2 22 8 22 13 0 5 10 11 23 13 15 3 12 5 -11 6 -23 1 -31 -3 -26 -11
5 -8 2 -9 -9 -5 -10 4 -22 -1 -30 -13 -8 -11 -16 -18 -19 -15 -2 3 -15 -6 -28
-20 -35 -37 -44 -30 -19 15 13 22 28 40 34 40 6 0 17 11 24 24 11 20 18 23 41
16 24 -7 27 -5 23 11 -7 26 -35 17 -89 -27 -50 -40 -73 -87 -54 -109 17 -21
40 -19 40 4 0 10 7 24 15 31 13 10 15 9 15 -8 0 -12 -4 -24 -10 -27 -15 -9
-12 -51 5 -65 23 -19 57 -5 99 40 20 22 33 40 29 40 -4 0 9 12 30 27 20 14 37
29 37 33 0 12 106 52 139 54 16 0 27 4 25 8 -3 5 -1 8 5 8 5 0 13 -4 16 -10
10 -16 35 -11 35 7 0 9 -3 13 -7 10 -3 -4 -12 1 -20 11 -8 9 -11 11 -7 3 4 -9
2 -12 -7 -9 -8 3 -20 -2 -27 -11 -11 -15 -12 -14 -6 0 4 13 -1 16 -24 16 -19
-1 -29 -7 -28 -17 1 -11 -7 -14 -27 -12 -17 2 -27 -1 -25 -9 9 -39 -69 18 -84
62 -2 7 -33 16 -72 20 -41 5 -78 16 -96 29 l-29 21 -11 -22z m78 -35 l37 -17
-39 -7 c-41 -8 -74 9 -61 30 9 14 20 13 63 -6z m123 -26 c11 -13 24 -32 30
-43 6 -12 1 -9 -13 7 -13 15 -41 34 -63 42 l-40 15 33 0 c23 1 40 -6 53 -21z
m189 -24 c0 -8 -19 -13 -24 -6 -3 5 1 9 9 9 8 0 15 -2 15 -3z m-201 -95 c-12
-7 -12 -9 0 -9 8 0 2 -9 -13 -21 -14 -11 -30 -18 -35 -14 -5 3 -13 0 -17 -6
-5 -8 -3 -9 7 -4 12 8 12 6 0 -8 -17 -21 -35 -22 -27 -2 3 9 0 15 -9 15 -7 0
-17 -9 -20 -20 -4 -11 -11 -18 -16 -14 -7 4 -5 12 4 22 8 10 12 24 9 32 -4 11
-2 13 9 5 8 -7 30 -8 54 -4 l40 7 -42 -1 c-23 -2 -39 1 -37 5 3 5 21 8 40 8
21 0 37 6 40 15 4 8 11 12 16 9 6 -4 5 -10 -3 -15z m-89 -99 c0 -5 -4 -10 -10
-10 -5 0 -10 5 -10 10 0 6 5 10 10 10 6 0 10 -4 10 -10z"/>
<path d="M875 1160 c-38 -7 -38 -7 18 -9 32 0 57 3 57 9 0 11 -14 11 -75 0z"/>
<path d="M995 1130 c3 -5 8 -10 11 -10 2 0 4 5 4 10 0 6 -5 10 -11 10 -5 0 -7
-4 -4 -10z"/>
<path d="M1071 1114 c0 -11 3 -14 6 -6 3 7 2 16 -1 19 -3 4 -6 -2 -5 -13z"/>
<path d="M1000 1083 c11 -24 25 -43 30 -43 6 0 9 3 9 8 -4 26 2 31 26 22 19
-7 23 -6 18 5 -3 8 -9 12 -14 9 -5 -3 -17 3 -27 13 -9 10 -14 14 -9 9 13 -18
7 -29 -8 -16 -8 7 -15 9 -15 4 0 -4 -7 1 -15 12 -10 11 -8 2 5 -23z m30 -14
c0 -6 -4 -7 -10 -4 -5 3 -10 11 -10 16 0 6 5 7 10 4 6 -3 10 -11 10 -16z"/>
<path d="M1390 1065 c5 -16 11 -39 13 -50 3 -13 5 -9 6 11 0 16 -6 39 -14 50
-14 18 -14 17 -5 -11z"/>
<path d="M1231 1064 c-1 -13 6 -24 18 -27 14 -3 17 0 13 15 -3 14 -7 16 -12 7
-6 -8 -9 -6 -13 7 -4 17 -5 17 -6 -2z"/>
<path d="M700 1060 c0 -5 5 -10 10 -10 6 0 10 5 10 10 0 6 -4 10 -10 10 -5 0
-10 -4 -10 -10z"/>
<path d="M1441 1060 c0 -8 4 -24 9 -35 5 -13 9 -14 9 -5 0 8 -4 24 -9 35 -5
13 -9 14 -9 5z"/>
<path d="M735 1030 c-16 -11 -26 -20 -22 -20 11 0 67 29 67 35 0 10 -16 4 -45
-15z"/>
<path d="M1320 1014 c0 -12 7 -27 15 -34 19 -16 19 -3 0 30 -13 24 -14 24 -15
4z"/>
<path d="M1062 1000 c-23 -10 -78 -53 -122 -95 -82 -78 -108 -89 -146 -60 -26
20 -47 19 -75 -4 -35 -28 -30 -90 12 -142 30 -38 81 -74 91 -64 4 5 72 -75
124 -147 12 -16 24 -47 28 -69 7 -43 -9 -119 -24 -119 -6 0 -10 -4 -10 -10 0
-5 6 -7 13 -4 19 7 91 -21 159 -62 47 -29 73 -38 124 -42 l64 -5 -15 36 c-20
47 -19 146 1 196 9 22 36 57 64 80 63 53 106 140 120 241 6 41 7 88 3 105 -6
22 -9 6 -13 -65 -9 -147 -65 -250 -165 -303 -52 -27 -166 -29 -249 -3 -67 20
-123 71 -133 121 -5 25 -7 26 -13 10 -7 -19 -7 -19 -14 3 -4 12 -11 22 -16 22
-5 0 -16 12 -24 28 -8 15 -15 22 -16 15 0 -23 -42 0 -66 37 -32 48 -30 103 3
108 24 4 49 -30 37 -51 -5 -9 -3 -9 7 1 10 9 11 17 3 29 -32 51 -75 39 -85
-23 l-6 -39 -2 47 c-1 37 3 49 18 58 21 11 46 5 71 -16 21 -17 71 -6 77 17 7
27 35 24 106 -12 78 -40 170 -49 244 -25 54 18 133 78 133 101 0 24 -59 82
-104 104 -55 27 -145 28 -204 1z m43 -10 c-3 -5 -15 -10 -26 -10 -10 0 -19 -7
-19 -15 0 -8 -7 -15 -15 -15 -8 0 -15 -8 -14 -17 0 -11 3 -13 6 -5 2 6 9 12
15 12 6 0 3 -11 -6 -25 -15 -23 -15 -24 1 -18 10 4 14 2 10 -4 -4 -6 -1 -14 5
-17 7 -4 2 -4 -11 -2 l-23 5 20 -20 c12 -10 27 -19 34 -19 9 0 9 -3 -2 -10
-13 -9 -13 -10 1 -10 8 0 24 -7 35 -15 18 -14 17 -14 -11 -4 -16 6 -31 10 -32
10 -2 -1 -11 -1 -20 -1 -13 0 -15 2 -5 8 18 12 -16 40 -45 37 -13 -1 -23 2
-23 6 0 5 -6 6 -14 3 -7 -3 -16 2 -20 11 -5 15 0 17 33 13 31 -3 39 0 38 13 0
8 -7 16 -14 16 -6 0 -10 -4 -7 -9 3 -4 -7 -7 -23 -7 -17 1 -21 3 -10 6 9 2 17
9 17 14 0 5 10 9 22 9 12 0 19 3 16 6 -4 3 3 15 13 25 28 28 88 51 74 29z
m124 -19 c55 -52 32 -141 -42 -156 -17 -4 -35 -13 -39 -19 -5 -7 -8 -5 -8 5 0
9 -7 19 -15 23 -26 9 -55 68 -48 96 18 75 97 102 152 51z m46 7 c5 4 5 1 1 -5
-6 -12 5 -18 27 -14 4 1 10 -6 13 -14 3 -8 11 -12 18 -8 6 3 8 3 4 -2 -4 -4
-2 -15 4 -23 10 -11 7 -18 -12 -34 -21 -17 -22 -19 -5 -13 16 5 18 4 8 -6 -10
-10 -16 -10 -24 -2 -6 6 -18 9 -27 6 -10 -5 -13 -2 -8 6 5 7 15 10 25 7 13 -5
12 -3 -3 8 -10 8 -15 20 -11 26 6 9 9 9 15 0 4 -7 8 -1 8 15 0 23 -2 25 -10
11 -12 -21 -22 -14 -42 25 -11 22 -12 28 -2 20 7 -6 17 -7 21 -3z m6 -141 c-1
-4 -3 -6 -4 -4 -2 1 -12 -5 -22 -13 -17 -14 -18 -14 -6 8 11 21 34 27 32 9z
m-241 -1 c0 -2 -7 -6 -15 -10 -8 -3 -15 -1 -15 4 0 6 7 10 15 10 8 0 15 -2 15
-4z m36 -401 c66 -16 103 -19 152 -12 36 6 45 -14 15 -32 -10 -6 -12 -11 -6
-11 9 0 11 -11 9 -32 -2 -20 -9 -32 -17 -30 -7 2 -38 10 -68 18 -31 8 -79 17
-108 20 -49 6 -51 8 -55 40 -2 19 0 34 4 34 5 0 3 10 -3 23 -11 19 -10 20 3
10 8 -7 41 -19 74 -28z m101 -117 l68 -23 3 -47 c2 -41 0 -48 -15 -48 -18 0
-106 41 -168 79 -16 10 -34 19 -40 21 -29 8 -35 14 -35 32 0 19 4 20 60 15 32
-4 90 -17 127 -29z"/>
<path d="M1145 969 c-20 -8 -20 -8 0 -9 11 -2 25 -2 31 -1 14 1 54 -37 54 -53
0 -21 -33 -51 -61 -54 -35 -4 -60 26 -55 66 2 17 -1 29 -5 26 -16 -9 -10 -70
9 -86 27 -24 46 -27 80 -13 80 34 28 156 -53 124z"/>
<path d="M1148 920 c-16 -17 -16 -21 -2 -35 20 -19 34 -19 34 1 0 8 5 12 10 9
14 -9 12 19 -2 33 -15 15 -19 14 -40 -8z"/>
<path d="M1320 906 c0 -9 5 -16 10 -16 6 0 10 4 10 9 0 6 -4 13 -10 16 -5 3
-10 -1 -10 -9z"/>
<path d="M680 988 c0 -4 4 -8 9 -8 6 0 12 4 15 8 3 5 -1 9 -9 9 -8 0 -15 -4
-15 -9z"/>
<path d="M1421 974 c0 -11 3 -14 6 -6 3 7 2 16 -1 19 -3 4 -6 -2 -5 -13z"/>
<path d="M1463 945 c0 -27 2 -38 4 -22 2 15 2 37 0 50 -2 12 -4 0 -4 -28z"/>
<path d="M1412 828 c-6 -23 -9 -44 -7 -46 2 -2 9 15 15 38 6 23 9 44 7 46 -2
3 -9 -14 -15 -38z"/>
<path d="M1310 807 c-19 -17 -34 -35 -32 -39 1 -4 -9 -8 -23 -8 -18 0 -23 -4
-19 -15 4 -8 1 -15 -5 -15 -6 0 -10 -4 -9 -10 2 -5 -15 -22 -38 -37 -45 -31
-110 -101 -101 -109 3 -3 10 3 16 13 5 11 52 54 104 96 85 69 155 142 146 152
-2 2 -20 -11 -39 -28z"/>
<path d="M1379 742 c-8 -15 -29 -52 -46 -82 -18 -30 -33 -62 -33 -70 0 -8 23
27 51 79 27 51 48 95 46 97 -2 2 -10 -8 -18 -24z"/>
<path d="M937 753 c18 -2 50 -2 70 0 21 2 7 4 -32 4 -38 0 -55 -2 -38 -4z"/>
<path d="M859 723 l-24 -28 30 25 c17 14 32 26 34 28 2 1 0 2 -6 2 -5 0 -20
-12 -34 -27z"/>
<path d="M1055 720 l-30 -8 30 0 c17 0 41 4 55 8 l25 8 -25 0 c-14 0 -38 -4
-55 -8z"/>
<path d="M975 698 c-30 -16 -65 -50 -65 -62 0 -6 7 0 16 13 9 13 35 32 58 42
22 10 34 19 26 18 -8 0 -24 -5 -35 -11z"/>
<path d="M1058 683 c7 -3 16 -2 19 1 4 3 -2 6 -13 5 -11 0 -14 -3 -6 -6z"/>
<path d="M959 623 c-13 -16 -12 -17 4 -4 9 7 17 15 17 17 0 8 -8 3 -21 -13z"/>
<path d="M1291 554 c0 -11 3 -14 6 -6 3 7 2 16 -1 19 -3 4 -6 -2 -5 -13z"/>
<path d="M1071 544 c0 -11 3 -14 6 -6 3 7 2 16 -1 19 -3 4 -6 -2 -5 -13z"/>
<path d="M1070 496 c0 -8 4 -17 9 -20 5 -4 7 3 4 14 -6 23 -13 26 -13 6z"/>
</g>
</svg>
